<?xml version="1.0" encoding="utf-8"?>
<svg version="1.1" xmlns:xlink="http://www.w3.org/1999/xlink" width="80px" height="80px" xmlns="http://www.w3.org/2000/svg">
  <g transform="matrix(1 0 0 1 -310 -309 )">
    <path d="M 350 309  C 372.4 309  390 326.6  390 349  C 390 371.4  372.4 389  350 389  C 327.6 389  310 371.4  310 349  C 310 326.6  327.6 309  350 309  Z " fill-rule="nonzero" fill="#e9e9e9" stroke="none" />
    <path d="M 350 309.5  C 372.12 309.5  389.5 326.88  389.5 349  C 389.5 371.12  372.12 388.5  350 388.5  C 327.88 388.5  310.5 371.12  310.5 349  C 310.5 326.88  327.88 309.5  350 309.5  Z " stroke-width="1" stroke="#ffffff" fill="none" />
  </g>
</svg>