<?xml version="1.0" encoding="utf-8"?>
<svg version="1.1" xmlns:xlink="http://www.w3.org/1999/xlink" width="80px" height="80px" xmlns="http://www.w3.org/2000/svg">
  <g transform="matrix(1 0 0 1 -310 -309 )">
    <path d="M 346.529784342762 309.652730674987  C 347.683643335578 309.550966571316  348.841500863784 309.5  350 309.5  C 371.815247618316 309.5  389.5 327.184752381684  389.5 349  C 389.5 370.648323743222  372.084849275082 388.229121090711  350.500040048698 388.496899819013  L 350.5 349  A 0.5 0.5 0 0 0 350.497470760719 348.949772097104 L 346.529784342762 309.652730674987  Z " fill-rule="nonzero" fill="#0096fa" stroke="none" />
    <path d="M 346.529784342762 309.652730674987  C 347.683643335578 309.550966571316  348.841500863784 309.5  350 309.5  C 371.815247618316 309.5  389.5 327.184752381684  389.5 349  C 389.5 370.648323743222  372.084849275082 388.229121090711  350.500040048698 388.496899819013  L 350.5 349  A 0.5 0.5 0 0 0 350.497470760719 348.949772097104 L 346.529784342762 309.652730674987  Z " stroke-width="1" stroke="#ffffff" fill="none" />
  </g>
</svg>