<?xml version="1.0" encoding="utf-8"?>
<svg version="1.1" xmlns:xlink="http://www.w3.org/1999/xlink" width="64px" height="64px" xmlns="http://www.w3.org/2000/svg">
  <g transform="matrix(1 0 0 1 -318 -317 )">
    <path d="M 350 317  C 367.92 317  382 331.08  382 349  C 382 366.92  367.92 381  350 381  C 332.08 381  318 366.92  318 349  C 318 331.08  332.08 317  350 317  Z " fill-rule="nonzero" fill="#ffffff" stroke="none" />
    <path d="M 350 317.5  C 367.64 317.5  381.5 331.36  381.5 349  C 381.5 366.64  367.64 380.5  350 380.5  C 332.36 380.5  318.5 366.64  318.5 349  C 318.5 331.36  332.36 317.5  350 317.5  Z " stroke-width="1" stroke="#ffffff" fill="none" />
  </g>
</svg>