<?xml version="1.0" standalone="no"?><!DOCTYPE svg PUBLIC "-//W3C//DTD SVG 1.1//EN" "http://www.w3.org/Graphics/SVG/1.1/DTD/svg11.dtd"><svg t="1588061271404" class="icon" viewBox="0 0 1755 1024" version="1.1" xmlns="http://www.w3.org/2000/svg" p-id="4028" xmlns:xlink="http://www.w3.org/1999/xlink" width="342.7734375" height="200"><defs><style type="text/css"></style></defs><path d="M949.101714 876.544l3.364572-2.925714a93.915429 93.915429 0 0 0 0-137.947429L314.221714 146.285714a105.325714 105.325714 0 0 0-142.921143 0l-3.364571 2.925715a93.915429 93.915429 0 0 0 0 137.947428l638.390857 589.238857a105.325714 105.325714 0 0 0 142.774857 0z" fill="#FFFFFF" p-id="4029"></path><path d="M1586.322286 149.504L1583.104 146.285714a105.325714 105.325714 0 0 0-142.921143 0L801.938286 735.670857a93.915429 93.915429 0 0 0 0 137.801143l3.218285 3.072a105.325714 105.325714 0 0 0 142.921143 0l638.244572-589.238857a93.915429 93.915429 0 0 0 0-137.801143z" fill="#FFFFFF" p-id="4030"></path></svg>