<?xml version="1.0" standalone="no"?><!DOCTYPE svg PUBLIC "-//W3C//DTD SVG 1.1//EN" "http://www.w3.org/Graphics/SVG/1.1/DTD/svg11.dtd"><svg t="1588060409931" class="icon" viewBox="0 0 1024 1024" version="1.1" xmlns="http://www.w3.org/2000/svg" p-id="5013" xmlns:xlink="http://www.w3.org/1999/xlink" width="200" height="200"><defs><style type="text/css"></style></defs><path d="M1009.199756 953.37931l-227.555555-227.555555c145.164751-172.628352 137.318008-431.570881-27.463602-592.429119C581.552247-39.233716 302.99286-39.233716 130.364507 133.394636s-172.628352 451.187739 0 623.816092c160.858238 160.858238 419.800766 172.628352 592.429119 27.463602l227.555556 227.555555c15.693487 15.693487 39.233716 15.693487 54.927203 0s19.616858-43.157088 3.923371-58.850575z m-823.908045-255.019157c-141.241379-141.241379-141.241379-368.796935 0-510.038314s368.796935-141.241379 510.038314 0c141.241379 141.241379 141.241379 368.796935 0 510.038314s-368.796935 137.318008-510.038314 0z" fill="#B5B5B5" p-id="5014"></path></svg>