<?xml version="1.0" standalone="no"?><!DOCTYPE svg PUBLIC "-//W3C//DTD SVG 1.1//EN" "http://www.w3.org/Graphics/SVG/1.1/DTD/svg11.dtd"><svg t="1588061654034" class="icon" viewBox="0 0 1024 1024" version="1.1" xmlns="http://www.w3.org/2000/svg" p-id="8218" xmlns:xlink="http://www.w3.org/1999/xlink" width="200" height="200"><defs><style type="text/css"></style></defs><path d="M932.425143 807.204571a207.506286 207.506286 0 0 1-76.8-97.938285 245.76 245.76 0 0 1-17.92-85.065143V472.502857h1.243428a327.533714 327.533714 0 0 0-216.941714-308.516571v-53.76a110.08 110.08 0 1 0-220.16 0v53.174857A327.972571 327.972571 0 0 0 182.857143 472.502857h1.316571v151.698286c0 18.505143-4.461714 51.2-17.92 85.065143a207.506286 207.506286 0 0 1-76.8 98.011428 35.84 35.84 0 0 0 19.821715 65.243429h803.84a35.108571 35.108571 0 0 0 35.181714-35.254857 35.986286 35.986286 0 0 0-15.945143-29.988572zM472.868571 110.226286c0-21.065143 17.261714-38.985143 39.058286-38.985143 21.138286 0 39.058286 17.261714 39.058286 38.985143v37.156571a275.382857 275.382857 0 0 0-39.716572-2.56c-12.8 0-25.6 0.658286-37.741714 1.901714v-36.498285h-0.658286z" fill="#FFFFFF" p-id="8219"></path><path d="M508.708571 1019.026286a183.222857 183.222857 0 0 0 179.2-147.163429H330.166857a181.979429 181.979429 0 0 0 178.541714 147.163429z m103.716572-147.163429a110.08 110.08 0 0 1-103.716572 74.24 110.08 110.08 0 0 1-103.643428-74.24h207.36z" fill="#FFFFFF" p-id="8220"></path></svg>