<?xml version="1.0" standalone="no"?><!DOCTYPE svg PUBLIC "-//W3C//DTD SVG 1.1//EN" "http://www.w3.org/Graphics/SVG/1.1/DTD/svg11.dtd"><svg t="1588064894694" class="icon" viewBox="0 0 1072 1024" version="1.1" xmlns="http://www.w3.org/2000/svg" p-id="10191" xmlns:xlink="http://www.w3.org/1999/xlink" width="209.375" height="200"><defs><style type="text/css"></style></defs><path d="M531.972622 283.821778c-119.462229 0-216.689856 96.106145-216.689856 214.251852s97.178867 214.251852 216.641096 214.251851c11.653662 0 23.941206-1.170242 38.764274-3.754527a40.373358 40.373358 0 0 0 32.864303-46.90721 40.568398 40.568398 0 0 0-47.34605-32.425462 138.966267 138.966267 0 0 1-24.185007 2.535524c-74.554183 0-135.16298-59.974915-135.16298-133.700176s60.560036-133.700177 134.96794-133.700177c74.505423 0 135.11422 59.974915 135.114219 133.700177 0 7.167734-0.780161 14.725548-2.535525 23.794925a40.373358 40.373358 0 0 0 40.275838 47.541092 40.470878 40.470878 0 0 0 39.983277-33.010584c2.633045-13.994147 3.852047-26.13541 3.852047-38.325433a211.326246 211.326246 0 0 0-63.388122-151.400091 216.397296 216.397296 0 0 0-153.204214-62.851761z" fill="#FFFFFF" p-id="10192"></path><path d="M1053.803144 399.627001a35.984949 35.984949 0 0 0-27.500692-28.183335 184.215634 184.215634 0 0 1-119.70603-87.231807 180.899948 180.899948 0 0 1-16.675952-145.938961 35.253548 35.253548 0 0 0-10.922261-37.545272A531.241221 531.241221 0 0 0 706.289957 2.037197a36.42379 36.42379 0 0 0-38.422954 9.459458 184.947035 184.947035 0 0 1-135.943141 58.658393A185.142076 185.142076 0 0 1 395.931961 11.447895 37.155191 37.155191 0 0 0 357.411487 1.988437a530.99742 530.99742 0 0 0-172.610732 98.739189 35.594868 35.594868 0 0 0-10.922261 37.398992 180.558627 180.558627 0 0 1-16.578432 145.987721 183.874313 183.874313 0 0 1-119.65727 87.280567 36.22875 36.22875 0 0 0-27.500693 28.232095C3.754527 432.735104 0.487601 465.843208 0.487601 498.07363c0 32.181662 3.218166 65.338526 9.605738 98.446629a35.984949 35.984949 0 0 0 27.500693 28.183334A184.215634 184.215634 0 0 1 157.300062 711.9354c25.98913 44.566726 31.889101 96.447465 16.578432 146.036481a35.936189 35.936189 0 0 0 10.922261 37.447752 531.972622 531.972622 0 0 0 172.659492 98.641669 36.57007 36.57007 0 0 0 38.325433-9.361938 185.142076 185.142076 0 0 1 136.040662-58.755912c52.02702 0 100.348273 20.86932 136.040661 58.707152a36.37503 36.37503 0 0 0 38.520474 9.508219 532.021382 532.021382 0 0 0 172.610732-98.64167c10.727221-9.264418 15.066869-23.892446 10.922261-37.496512a180.168546 180.168546 0 0 1 16.675952-145.98772 183.776793 183.776793 0 0 1 119.70603-87.280568 36.27751 36.27751 0 0 0 27.500692-28.134574c6.338812-33.156864 9.605738-66.264967 9.605739-98.446629 0-32.279182-3.266926-65.436046-9.605739-98.544149z m-255.892971 435.281356a430.356587 430.356587 0 0 1-104.20032 59.487314 244.82443 244.82443 0 0 0-161.883511-60.657557c-59.633595 0-116.829184 21.454441-161.834751 60.706317a430.551627 430.551627 0 0 1-104.20032-59.487314 237.461656 237.461656 0 0 0-27.793254-169.002485 243.117827 243.117827 0 0 0-134.285298-108.296168 414.314516 414.314516 0 0 1-4.388408-59.584834c0-19.552798 1.462803-39.544436 4.388408-59.536075A243.166587 243.166587 0 0 0 238.046777 330.143867a238.680659 238.680659 0 0 0 27.695734-168.953725 430.697907 430.697907 0 0 1 104.24908-59.487314 245.214511 245.214511 0 0 0 161.883511 60.755077 244.77567 244.77567 0 0 0 161.883511-60.706317 430.649147 430.649147 0 0 1 104.15156 59.487315 238.485618 238.485618 0 0 0 27.646973 169.002484 243.117827 243.117827 0 0 0 134.285298 108.344928 415.679799 415.679799 0 0 1 0.14628 118.974629 243.166587 243.166587 0 0 0-134.334058 108.344928 239.119499 239.119499 0 0 0-27.744493 168.953725z" fill="#FFFFFF" p-id="10193"></path></svg>