<?xml version="1.0" encoding="utf-8"?>
<svg version="1.1" xmlns:xlink="http://www.w3.org/1999/xlink" width="370px" height="55px" xmlns="http://www.w3.org/2000/svg">
  <g transform="matrix(1 0 0 1 0 -70 )">
    <path d="M 0.5 73  A 2.5 2.5 0 0 1 3 70.5 L 367 70.5  A 2.5 2.5 0 0 1 369.5 73 L 369.5 122  A 2.5 2.5 0 0 1 367 124.5 L 3 124.5  A 2.5 2.5 0 0 1 0.5 122 L 0.5 73  Z " fill-rule="nonzero" fill="#ffffff" stroke="none" />
    <path d="M 0.5 73  A 2.5 2.5 0 0 1 3 70.5 L 367 70.5  A 2.5 2.5 0 0 1 369.5 73 L 369.5 122  A 2.5 2.5 0 0 1 367 124.5 L 3 124.5  A 2.5 2.5 0 0 1 0.5 122 L 0.5 73  Z " stroke-width="1" stroke="#0079fe" fill="none" />
  </g>
</svg>