<?xml version="1.0" encoding="utf-8"?>
<svg version="1.1" xmlns:xlink="http://www.w3.org/1999/xlink" width="376px" height="61px" xmlns="http://www.w3.org/2000/svg">
  <defs>
    <filter x="-3px" y="67px" width="376px" height="61px" filterUnits="userSpaceOnUse" id="filter5">
      <feOffset dx="0" dy="0" in="SourceAlpha" result="shadowOffsetInner" />
      <feGaussianBlur stdDeviation="1.5" in="shadowOffsetInner" result="shadowGaussian" />
      <feComposite in2="shadowGaussian" operator="atop" in="SourceAlpha" result="shadowComposite" />
      <feColorMatrix type="matrix" values="0 0 0 0 0  0 0 0 0 0.474509803921569  0 0 0 0 0.996078431372549  0 0 0 0.8 0  " in="shadowComposite" />
    </filter>
    <g id="widget6">
      <path d="M 0.5 73  A 2.5 2.5 0 0 1 3 70.5 L 367 70.5  A 2.5 2.5 0 0 1 369.5 73 L 369.5 122  A 2.5 2.5 0 0 1 367 124.5 L 3 124.5  A 2.5 2.5 0 0 1 0.5 122 L 0.5 73  Z " fill-rule="nonzero" fill="#ffffff" stroke="none" />
      <path d="M 0.5 73  A 2.5 2.5 0 0 1 3 70.5 L 367 70.5  A 2.5 2.5 0 0 1 369.5 73 L 369.5 122  A 2.5 2.5 0 0 1 367 124.5 L 3 124.5  A 2.5 2.5 0 0 1 0.5 122 L 0.5 73  Z " stroke-width="1" stroke="#0079fe" fill="none" />
    </g>
  </defs>
  <g transform="matrix(1 0 0 1 3 -67 )">
    <use xlink:href="#widget6" filter="url(#filter5)" />
    <use xlink:href="#widget6" />
  </g>
</svg>