<?xml version="1.0" encoding="utf-8"?>
<svg version="1.1" xmlns:xlink="http://www.w3.org/1999/xlink" width="40px" height="40px" xmlns="http://www.w3.org/2000/svg">
  <g transform="matrix(1 0 0 1 -9 -15 )">
    <path d="M 40 26.6048780487805  C 39.9512195121951 25.0439024390244  38.5365853658537 23.4341463414634  37.0243902439024 23.4829268292683  C 36.9268292682927 23.4829268292683  26.0487804878049 5.58048780487805  26.0487804878049 5.58048780487805  C 26.6829268292683 5.04390243902439  26.8780487804878 4.45853658536585  26.8780487804878 3.58048780487805  C 26.8780487804878 1.9219512195122  25.5609756097561 0.55609756097561  23.9024390243902 0.507317073170732  C 20.6829268292683 0.458536585365854  20.5853658536585 3.82439024390244  20.6829268292683 3.97073170731707  L 8.48780487804878 8.50731707317073  C 7.95121951219512 7.72682926829268  7.17073170731707 7.43414634146341  6.19512195121951 7.43414634146341  C 4.48780487804878 7.43414634146341  3.1219512195122 8.8  3.1219512195122 10.5073170731707  C 3.1219512195122 11.8731707317073  3.85365853658537 13.0439024390244  5.07317073170732 13.4341463414634  L 2.29268292682927 25.1414634146341  C 0.926829268292683 25.4341463414634  0.0487804878048781 26.6536585365854  0.0487804878048781 28.1170731707317  C 0.0487804878048781 29.8243902439024  1.41463414634146 31.190243902439  3.1219512195122 31.190243902439  C 4.04878048780488 31.190243902439  4.8780487804878 30.8  5.51219512195122 30.1170731707317  L 16.9268292682927 36.4585365853658  L 16.9268292682927 36.5560975609756  C 16.9268292682927 38.2634146341463  18.2926829268293 39.6292682926829  20 39.6292682926829  C 21.8536585365854 39.6292682926829  23.0731707317073 37.9707317073171  22.8780487804878 36.3609756097561  L 35.0243902439024 29.2390243902439  C 35.5609756097561 29.6292682926829  36.2439024390244 29.6780487804878  36.9268292682927 29.6780487804878  C 38.6341463414634 29.6780487804878  40 28.3121951219512  40 26.6048780487805  Z M 22.1951219512195 3.48292682926829  C 22.1951219512195 2.70243902439024  22.8780487804878 1.97073170731707  23.7073170731707 1.97073170731707  C 24.5365853658537 1.97073170731707  25.219512195122 2.65365853658537  25.219512195122 3.48292682926829  C 25.219512195122 4.31219512195122  24.5365853658537 4.99512195121951  23.7073170731707 4.99512195121951  C 22.8780487804878 4.99512195121951  22.1951219512195 4.31219512195122  22.1951219512195 3.48292682926829  Z M 22.8780487804878 6.45853658536585  L 21.3170731707317 17.8731707317073  L 15.7560975609756 14.6536585365854  L 22.8780487804878 6.45853658536585  C 22.9756097560976 6.45853658536585  22.7317073170732 6.45853658536585  22.8780487804878 6.45853658536585  Z M 21.9512195121951 26.019512195122  L 22.6341463414634 20.3121951219512  L 32.0975609756098 25.6292682926829  L 21.9512195121951 26.019512195122  Z M 14.8292682926829 15.9219512195122  L 20.9756097560976 19.4829268292683  L 20.2926829268293 26.2634146341463  L 15.3658536585366 26.5073170731707  L 11.9512195121951 19.4341463414634  L 14.8292682926829 15.9219512195122  Z M 8.97560975609756 9.87317073170732  L 21.2682926829268 5.38536585365854  C 21.3658536585366 5.53170731707317  21.5121951219512 5.62926829268293  21.5609756097561 5.77560975609756  L 14.5365853658537 13.9219512195122  L 9.07317073170732 10.8  C 9.07317073170732 10.6536585365854  9.07317073170732 10.5073170731707  9.07317073170732 10.409756097561  C 9.07317073170732 10.2634146341463  9.07317073170732 10.019512195122  8.97560975609756 9.87317073170732  Z M 8.53658536585366 12.2146341463415  L 8.63414634146342 12.1170731707317  L 13.6585365853659 14.9463414634146  L 11.1219512195122 17.8731707317073  L 8.53658536585366 12.2146341463415  Z M 6.04878048780488 11.9219512195122  C 5.21951219512195 11.9219512195122  4.53658536585366 11.2878048780488  4.53658536585366 10.409756097561  C 4.53658536585366 9.58048780487805  5.21951219512195 8.89756097560976  6.04878048780488 8.89756097560976  C 6.8780487804878 8.89756097560976  7.5609756097561 9.58048780487805  7.5609756097561 10.409756097561  C 7.5609756097561 11.2390243902439  6.8780487804878 11.9219512195122  6.04878048780488 11.9219512195122  Z M 4.53658536585366 28.0682926829268  C 4.53658536585366 28.8975609756098  3.85365853658537 29.580487804878  3.02439024390244 29.580487804878  C 2.19512195121951 29.580487804878  1.51219512195122 28.8975609756098  1.51219512195122 28.0682926829268  C 1.51219512195122 27.2390243902439  2.19512195121951 26.5560975609756  3.02439024390244 26.5560975609756  C 3.85365853658537 26.5560975609756  4.53658536585366 27.2390243902439  4.53658536585366 28.0682926829268  Z M 10.1463414634146 19.1414634146341  L 4.73170731707317 25.4341463414634  C 4.48780487804878 25.2878048780488  4.29268292682927 25.190243902439  3.95121951219512 25.0439024390244  L 6.73170731707317 13.3365853658537  C 6.97560975609756 13.2390243902439  7.12195121951219 13.3365853658537  7.36585365853658 13.2390243902439  L 10.1463414634146 19.1414634146341  Z M 5.85365853658537 27.0439024390244  C 5.70731707317073 26.7512195121951  5.85365853658537 26.7512195121951  5.70731707317073 26.5073170731707  L 10.7317073170732 20.5073170731707  L 13.5121951219512 26.7024390243902  L 5.85365853658537 27.0439024390244  Z M 17.1707317073171 34.5560975609756  C 17.1219512195122 34.7024390243902  17.2682926829268 34.5560975609756  17.219512195122 34.7512195121951  L 6.29268292682927 28.7024390243902  L 14.2439024390244 28.2634146341463  L 17.1707317073171 34.5560975609756  Z M 18.5365853658537 33.6780487804878  L 15.9512195121951 28.2146341463415  L 20 27.9707317073171  L 19.3170731707317 33.4341463414634  C 19.0243902439024 33.5317073170732  18.780487804878 33.580487804878  18.5365853658537 33.6780487804878  Z M 21.4146341463415 36.5073170731707  C 21.4146341463415 37.3365853658537  20.7317073170732 38.0195121951219  19.9024390243902 38.0195121951219  C 19.0731707317073 38.0195121951219  18.390243902439 37.3365853658537  18.390243902439 36.5073170731707  C 18.390243902439 35.6780487804878  19.0731707317073 34.9951219512195  19.9024390243902 34.9951219512195  C 20.7317073170732 34.9951219512195  21.4146341463415 35.6780487804878  21.4146341463415 36.5073170731707  Z M 34 28.0195121951219  L 22.390243902439 34.8  C 22 34.2634146341463  21.4634146341463 33.8243902439024  20.780487804878 33.580487804878  L 21.5609756097561 27.9707317073171  L 33.7560975609756 27.3365853658537  C 33.8536585365854 27.5804878048781  33.9024390243902 27.7756097560976  34 28.0195121951219  Z M 35.1707317073171 23.8243902439024  C 34.7317073170732 24.0682926829268  34.2926829268293 24.5073170731707  34.0487804878049 25.0439024390244  L 22.780487804878 18.6048780487805  L 24.390243902439 6.50731707317073  C 24.4878048780488 6.50731707317073  24.5365853658537 6.50731707317073  24.5365853658537 6.40975609756098  L 35.1707317073171 23.8243902439024  Z M 38.2439024390244 26.5560975609756  C 38.2926829268293 27.3365853658537  37.609756097561 28.0682926829268  36.7317073170732 28.0682926829268  C 35.9024390243902 28.0682926829268  35.219512195122 27.3853658536585  35.219512195122 26.5560975609756  C 35.219512195122 25.7268292682927  35.9024390243902 25.0439024390244  36.7317073170732 25.0439024390244  C 37.5609756097561 25.0439024390244  38.2439024390244 25.7268292682927  38.2439024390244 26.5560975609756  Z " fill-rule="nonzero" fill="#999999" stroke="none" transform="matrix(1 0 0 1 9 15 )" />
  </g>
</svg>