<?xml version="1.0" encoding="utf-8"?>
<svg version="1.1" xmlns:xlink="http://www.w3.org/1999/xlink" width="206px" height="36px" xmlns="http://www.w3.org/2000/svg">
  <defs>
    <filter x="-3px" y="17px" width="206px" height="36px" filterUnits="userSpaceOnUse" id="filter7">
      <feOffset dx="0" dy="0" in="SourceAlpha" result="shadowOffsetInner" />
      <feGaussianBlur stdDeviation="1.5" in="shadowOffsetInner" result="shadowGaussian" />
      <feComposite in2="shadowGaussian" operator="atop" in="SourceAlpha" result="shadowComposite" />
      <feColorMatrix type="matrix" values="0 0 0 0 1  0 0 0 0 1  0 0 0 0 1  0 0 0 0.8 0  " in="shadowComposite" />
    </filter>
    <g id="widget8">
      <path d="M 0.5 35  A 14.5 14.5 0 0 1 15 20.5 L 185 20.5  A 14.5 14.5 0 0 1 199.5 35 A 14.5 14.5 0 0 1 185 49.5 L 15 49.5  A 14.5 14.5 0 0 1 0.5 35 Z " fill-rule="nonzero" fill="#ffffff" stroke="none" fill-opacity="0" />
      <path d="M 0.5 35  A 14.5 14.5 0 0 1 15 20.5 L 185 20.5  A 14.5 14.5 0 0 1 199.5 35 A 14.5 14.5 0 0 1 185 49.5 L 15 49.5  A 14.5 14.5 0 0 1 0.5 35 Z " stroke-width="1" stroke="#ffffff" fill="none" />
    </g>
  </defs>
  <g transform="matrix(1 0 0 1 3 -17 )">
    <use xlink:href="#widget8" filter="url(#filter7)" />
    <use xlink:href="#widget8" />
  </g>
</svg>