<?xml version="1.0" encoding="utf-8"?>
<svg version="1.1" xmlns:xlink="http://www.w3.org/1999/xlink" width="200px" height="30px" xmlns="http://www.w3.org/2000/svg">
  <g transform="matrix(1 0 0 1 0 -20 )">
    <path d="M 0.5 35  A 14.5 14.5 0 0 1 15 20.5 L 185 20.5  A 14.5 14.5 0 0 1 199.5 35 A 14.5 14.5 0 0 1 185 49.5 L 15 49.5  A 14.5 14.5 0 0 1 0.5 35 Z " fill-rule="nonzero" fill="#ffffff" stroke="none" fill-opacity="0" />
    <path d="M 0.5 35  A 14.5 14.5 0 0 1 15 20.5 L 185 20.5  A 14.5 14.5 0 0 1 199.5 35 A 14.5 14.5 0 0 1 185 49.5 L 15 49.5  A 14.5 14.5 0 0 1 0.5 35 Z " stroke-width="1" stroke="#ffffff" fill="none" />
  </g>
</svg>